<?xml version="1.0" encoding="UTF-8" standalone="no"?>
<!DOCTYPE svg PUBLIC "-//W3C//DTD SVG 1.1//EN" "http://www.w3.org/Graphics/SVG/1.1/DTD/svg11.dtd">
<svg width="100%" height="100%" viewBox="0 0 1319 271" version="1.1" xmlns="http://www.w3.org/2000/svg" xmlns:xlink="http://www.w3.org/1999/xlink" xml:space="preserve" xmlns:serif="http://www.serif.com/" style="fill-rule:evenodd;clip-rule:evenodd;stroke-linejoin:round;stroke-miterlimit:2;">
    <path d="M0,116.533c0,34.102 28.459,60.352 62.069,60.352c14.966,0 29.44,-5.397 40.48,-14.965l-10.058,-10.549c-8.096,7.36 -18.891,11.53 -30.422,11.53c-25.76,0 -46.368,-20.608 -46.368,-46.368c0,-25.76 20.608,-46.368 46.368,-46.368c11.531,0 22.326,4.171 30.422,11.531l10.058,-10.549c-11.04,-9.568 -25.514,-14.966 -40.48,-14.966c-33.61,0 -62.069,26.251 -62.069,60.352Z" style="fill:rgb(77,201,206);fill-rule:nonzero;"/>
    <path d="M245.088,116.533c0,-34.101 -28.459,-60.352 -62.069,-60.352c-33.611,0 -62.07,26.251 -62.07,60.352c0,34.102 28.459,60.352 62.07,60.352c33.61,0 62.069,-26.25 62.069,-60.352Zm-108.437,0c-0,-25.76 20.608,-46.368 46.368,-46.368c25.76,0 46.368,20.608 46.368,46.368c-0,25.76 -20.608,46.368 -46.368,46.368c-25.76,0 -46.368,-20.608 -46.368,-46.368Z" style="fill:rgb(77,201,206);fill-rule:nonzero;"/>
    <path d="M369.472,173.941l0,-72.128c0,-28.458 -19.872,-45.632 -42.443,-45.632c-14.229,0 -26.005,5.888 -34.592,17.664l0,-14.72l-15.701,0l0,114.816l15.701,0l0,-62.805c0,-22.816 8.832,-40.971 30.667,-40.971c21.835,0 30.667,18.155 30.667,40.971l-0,62.805l15.701,0Z" style="fill:rgb(77,201,206);fill-rule:nonzero;"/>
    <path d="M426.144,86.357l0,-69.184l18.891,0c24.533,0 40.234,13.494 40.234,34.592c0,21.099 -15.701,34.592 -40.234,34.592l-18.891,0Zm0,14.966l19.381,-0c35.328,-0 56.427,-21.59 56.427,-49.558c0,-27.968 -21.099,-49.557 -56.427,-49.557l-36.064,-0l0,171.733l16.683,0l0,-72.618Z" style="fill:rgb(77,201,206);fill-rule:nonzero;"/>
    <path d="M624.619,116.533c-0,26.006 -21.099,46.368 -46.614,46.368c-25.76,0 -46.858,-20.362 -46.858,-46.368c-0,-26.005 21.098,-46.368 46.858,-46.368c25.515,0 46.614,20.363 46.614,46.368Zm15.701,-57.408l-15.701,0l-0,22.816c-10.059,-16.192 -27.478,-25.76 -48.331,-25.76c-32.875,0 -60.843,26.251 -60.843,60.352c0,34.102 27.968,60.352 60.843,60.352c20.853,0 38.272,-9.568 48.331,-25.76l-0,22.816l15.701,0l0,-114.816Z" style="fill:rgb(77,201,206);fill-rule:nonzero;"/>
    <path d="M706.56,162.901c-11.531,0 -19.872,-7.36 -25.515,-18.645l-11.53,8.587c7.36,15.21 22.08,24.042 37.045,24.042c25.024,0 37.781,-15.701 37.781,-35.082c0,-14.966 -8.586,-27.232 -30.666,-36.555c-15.702,-6.379 -22.816,-12.021 -22.816,-21.344c-0,-8.096 7.114,-13.739 15.456,-13.739c7.114,0 13.493,3.435 16.928,9.323l10.794,-7.851c-5.888,-9.568 -16.928,-15.456 -27.968,-15.456c-17.418,0 -30.912,12.022 -30.912,28.95c0,14.229 10.795,24.288 28.214,31.402c18.154,7.36 25.269,14.23 25.269,26.251c-0,11.04 -8.341,20.117 -22.08,20.117Z" style="fill:rgb(77,201,206);fill-rule:nonzero;"/>
    <path d="M801.013,162.901c-11.53,0 -19.872,-7.36 -25.514,-18.645l-11.531,8.587c7.36,15.21 22.08,24.042 37.045,24.042c25.024,0 37.782,-15.701 37.782,-35.082c-0,-14.966 -8.587,-27.232 -30.667,-36.555c-15.701,-6.379 -22.816,-12.021 -22.816,-21.344c0,-8.096 7.115,-13.739 15.456,-13.739c7.115,0 13.493,3.435 16.928,9.323l10.795,-7.851c-5.888,-9.568 -16.928,-15.456 -27.968,-15.456c-17.419,0 -30.912,12.022 -30.912,28.95c-0,14.229 10.794,24.288 28.213,31.402c18.155,7.36 25.269,14.23 25.269,26.251c0,11.04 -8.341,20.117 -22.08,20.117Z" style="fill:rgb(77,201,206);fill-rule:nonzero;"/>
    <path d="M886.635,59.125l-15.702,0l0,114.816l15.702,0l-0,-114.816Zm-19.627,-47.104c-0,6.624 5.152,12.022 11.776,12.022c6.624,-0 11.776,-5.398 11.776,-12.022c0,-6.624 -5.152,-12.021 -11.776,-12.021c-6.624,-0 -11.776,5.397 -11.776,12.021Z" style="fill:rgb(77,201,206);fill-rule:nonzero;"/>
    <path d="M1043.89,116.533c0,-34.101 -28.458,-60.352 -62.069,-60.352c-33.611,0 -62.069,26.251 -62.069,60.352c-0,34.102 28.458,60.352 62.069,60.352c33.611,0 62.069,-26.25 62.069,-60.352Zm-108.437,0c0,-25.76 20.608,-46.368 46.368,-46.368c25.76,0 46.368,20.608 46.368,46.368c0,25.76 -20.608,46.368 -46.368,46.368c-25.76,0 -46.368,-20.608 -46.368,-46.368Z" style="fill:rgb(77,201,206);fill-rule:nonzero;"/>
    <path d="M1168.28,173.941l0,-72.128c0,-28.458 -19.872,-45.632 -42.442,-45.632c-14.23,0 -26.006,5.888 -34.592,17.664l-0,-14.72l-15.702,0l0,114.816l15.702,0l-0,-62.805c-0,-22.816 8.832,-40.971 30.666,-40.971c21.835,0 30.667,18.155 30.667,40.971l0,62.805l15.701,0Z" style="fill:rgb(77,201,206);fill-rule:nonzero;"/>
    <path d="M1317.93,120.459c0.245,-0.736 0.49,-3.19 0.49,-4.171c-0.245,-34.837 -27.477,-60.107 -59.616,-60.107c-32.874,0 -60.106,26.006 -60.106,60.352c-0,35.083 27.968,60.352 62.314,60.352c20.854,0 38.027,-8.586 50.784,-25.514l-12.021,-8.587c-8.832,12.757 -22.08,20.117 -38.763,20.117c-23.797,0 -44.65,-16.192 -46.613,-42.442l103.531,-0Zm-59.126,-50.294c21.59,0 39.008,14.72 43.179,36.555l-86.848,0c4.416,-23.061 23.552,-36.555 43.669,-36.555Z" style="fill:rgb(77,201,206);fill-rule:nonzero;"/>
    <path d="M31.541,266.234l-23.552,-0l0,-28.587l20.395,-0l0,-3.413l-20.395,-0l0,-20.907l22.614,-0l-0,-3.413l-26.368,-0l-0,59.733l27.306,-0l0,-3.413Z" style="fill:white;fill-rule:nonzero;"/>
    <path d="M88.971,270.671l1.365,-0.512l0,-60.245l-3.755,-0l0,52.394l-41.045,-53.418l-1.365,0.512l-0,60.245l3.754,-0l0,-52.395l41.046,53.419Z" style="fill:white;fill-rule:nonzero;"/>
    <path d="M99.979,213.327l15.53,-0l0,56.32l3.755,-0l0,-56.32l15.531,-0l-0,-3.413l-34.816,-0l-0,3.413Z" style="fill:white;fill-rule:nonzero;"/>
    <path d="M148.192,269.647l0,-31.061l19.883,-0l-0,-3.414l-19.883,0l0,-21.845l22.187,-0l-0,-3.413l-25.942,-0l0,59.733l3.755,-0Z" style="fill:white;fill-rule:nonzero;"/>
    <path d="M197.003,208.89l-24.832,60.757l3.498,1.024l7.254,-17.835l29.184,0l7.253,17.835l3.499,-1.024l-24.832,-60.757l-1.024,-0Zm13.824,40.618l-26.624,0l13.312,-32.938l13.312,32.938Z" style="fill:white;fill-rule:nonzero;"/>
    <path d="M232.075,209.914l-0,59.733l28.16,-0l-0,-3.413l-24.406,-0l0,-56.32l-3.754,-0Z" style="fill:white;fill-rule:nonzero;"/>
    <path d="M264.16,213.327l15.531,-0l-0,56.32l3.754,-0l0,-56.32l15.531,-0l0,-3.413l-34.816,-0l0,3.413Z" style="fill:white;fill-rule:nonzero;"/>
    <path d="M335.925,266.234l-23.552,-0l0,-28.587l20.395,-0l0,-3.413l-20.395,-0l0,-20.907l22.614,-0l-0,-3.413l-26.368,-0l-0,59.733l27.306,-0l0,-3.413Z" style="fill:white;fill-rule:nonzero;"/>
    <path d="M393.355,270.671l1.365,-0.512l0,-60.245l-3.755,-0l0,52.394l-41.045,-53.418l-1.365,0.512l-0,60.245l3.754,-0l0,-52.395l41.046,53.419Z" style="fill:white;fill-rule:nonzero;"/>
    <path d="M411.872,267.514c0,1.706 1.365,3.157 3.157,3.157c1.792,-0 3.158,-1.451 3.158,-3.157c-0,-1.707 -1.366,-3.158 -3.158,-3.158c-1.792,0 -3.157,1.451 -3.157,3.158Z" style="fill:white;fill-rule:nonzero;"/>
    <path d="M469.301,240.719l0,3.413l17.579,0c-0.853,11.691 -9.387,23.126 -24.064,23.126c-14.592,-0 -26.624,-12.374 -26.624,-27.478c0,-15.53 12.288,-27.477 27.307,-27.477c8.704,-0 16.469,4.181 21.418,10.496l2.816,-2.219c-5.376,-6.656 -14.08,-11.69 -24.234,-11.69c-16.982,-0 -31.062,13.397 -31.062,30.89c0,17.067 13.91,30.891 30.379,30.891c18.005,-0 27.904,-14.336 28.16,-29.952l-21.675,-0Z" style="fill:white;fill-rule:nonzero;"/>
    <path d="M530.485,266.234l-23.552,-0l0,-28.587l20.395,-0l0,-3.413l-20.395,-0l0,-20.907l22.614,-0l-0,-3.413l-26.368,-0l-0,59.733l27.306,-0l0,-3.413Z" style="fill:white;fill-rule:nonzero;"/>
    <path d="M539.275,260.346c3.242,6.485 9.898,10.325 17.322,10.325c11.179,-0 17.579,-7.595 17.579,-16.64c0,-8.96 -4.608,-14.933 -15.275,-19.285c-8.789,-3.584 -11.861,-7.424 -11.861,-13.227c0,-5.461 4.267,-9.216 9.899,-9.216c3.84,-0 6.57,1.365 8.874,4.352l2.646,-1.963c-2.475,-3.84 -6.742,-5.802 -11.52,-5.802c-8.107,-0 -13.654,5.546 -13.654,12.714c0,7.936 4.779,12.715 13.483,16.128c10.581,4.267 13.653,9.558 13.653,16.47c0,7.594 -5.717,13.056 -13.824,13.056c-6.144,-0 -11.349,-3.499 -14.336,-9.046l-2.986,2.134Z" style="fill:white;fill-rule:nonzero;"/>
    <path d="M581.003,213.327l15.53,-0l0,56.32l3.755,-0l0,-56.32l15.531,-0l-0,-3.413l-34.816,-0l-0,3.413Z" style="fill:white;fill-rule:nonzero;"/>
    <path d="M641.419,208.89l-24.832,60.757l3.498,1.024l7.254,-17.835l29.184,0l7.253,17.835l3.499,-1.024l-24.832,-60.757l-1.024,-0Zm13.824,40.618l-26.624,0l13.312,-32.938l13.312,32.938Z" style="fill:white;fill-rule:nonzero;"/>
    <path d="M676.491,209.914l-0,59.733l28.16,-0l-0,-3.413l-24.406,-0l0,-56.32l-3.754,-0Z" style="fill:white;fill-rule:nonzero;"/>
    <path d="M708.576,213.327l15.531,-0l-0,56.32l3.754,-0l0,-56.32l15.531,-0l0,-3.413l-34.816,-0l0,3.413Z" style="fill:white;fill-rule:nonzero;"/>
    <path d="M780.341,266.234l-23.552,-0l0,-28.587l20.395,-0l0,-3.413l-20.395,-0l0,-20.907l22.614,-0l-0,-3.413l-26.368,-0l-0,59.733l27.306,-0l0,-3.413Z" style="fill:white;fill-rule:nonzero;"/>
    <path d="M837.771,270.671l1.365,-0.512l0,-60.245l-3.755,-0l0,52.394l-41.045,-53.418l-1.365,0.512l-0,60.245l3.754,-0l0,-52.395l41.046,53.419Z" style="fill:white;fill-rule:nonzero;"/>
    <path d="M856.288,267.514c0,1.706 1.365,3.157 3.157,3.157c1.792,-0 3.158,-1.451 3.158,-3.157c-0,-1.707 -1.366,-3.158 -3.158,-3.158c-1.792,0 -3.157,1.451 -3.157,3.158Z" style="fill:white;fill-rule:nonzero;"/>
    <path d="M911.499,270.671l3.072,-2.048l-22.87,-27.733c13.739,-1.792 16.64,-9.472 16.64,-15.19c0,-9.472 -7.168,-15.786 -18.602,-15.786l-9.984,-0l-0,59.733l3.754,-0l0,-56.32l5.632,-0c9.984,-0 15.531,5.291 15.531,12.288c0,6.229 -4.779,12.203 -17.749,12.544c-0.171,0.427 -0.342,0.939 -0.427,1.365l25.003,31.147Z" style="fill:white;fill-rule:nonzero;"/>
    <path d="M951.691,266.234l-23.552,-0l-0,-28.587l20.394,-0l0,-3.413l-20.394,-0l-0,-20.907l22.613,-0l0,-3.413l-26.368,-0l0,59.733l27.307,-0l-0,-3.413Z" style="fill:white;fill-rule:nonzero;"/>
    <path d="M982.837,208.89l-24.832,60.757l3.499,1.024l7.253,-17.835l29.184,0l7.254,17.835l3.498,-1.024l-24.832,-60.757l-1.024,-0Zm13.824,40.618l-26.624,0l13.312,-32.938l13.312,32.938Z" style="fill:white;fill-rule:nonzero;"/>
    <path d="M1017.91,209.914l0,59.733l28.16,-0l0,-3.413l-24.405,-0l0,-56.32l-3.755,-0Z" style="fill:white;fill-rule:nonzero;"/>
    <rect x="1056.82" y="209.914" width="3.755" height="59.733" style="fill:white;fill-rule:nonzero;"/>
    <path d="M1073.2,260.346c3.243,6.485 9.899,10.325 17.323,10.325c11.179,-0 17.579,-7.595 17.579,-16.64c-0,-8.96 -4.608,-14.933 -15.275,-19.285c-8.789,-3.584 -11.861,-7.424 -11.861,-13.227c-0,-5.461 4.266,-9.216 9.898,-9.216c3.84,-0 6.571,1.365 8.875,4.352l2.645,-1.963c-2.474,-3.84 -6.741,-5.802 -11.52,-5.802c-8.106,-0 -13.653,5.546 -13.653,12.714c0,7.936 4.779,12.715 13.483,16.128c10.581,4.267 13.653,9.558 13.653,16.47c0,7.594 -5.717,13.056 -13.824,13.056c-6.144,-0 -11.349,-3.499 -14.336,-9.046l-2.987,2.134Z" style="fill:white;fill-rule:nonzero;"/>
    <rect x="1121.76" y="209.914" width="3.755" height="59.733" style="fill:white;fill-rule:nonzero;"/>
    <path d="M1169.29,266.234l-23.552,-0l-0,-28.587l20.394,-0l0,-3.413l-20.394,-0l-0,-20.907l22.613,-0l0,-3.413l-26.368,-0l-0,59.733l27.307,-0l-0,-3.413Z" style="fill:white;fill-rule:nonzero;"/>
    <path d="M1213.66,270.671l3.072,-2.048l-22.869,-27.733c13.738,-1.792 16.64,-9.472 16.64,-15.19c-0,-9.472 -7.168,-15.786 -18.603,-15.786l-9.984,-0l0,59.733l3.755,-0l-0,-56.32l5.632,-0c9.984,-0 15.53,5.291 15.53,12.288c0,6.229 -4.778,12.203 -17.749,12.544c-0.171,0.427 -0.341,0.939 -0.427,1.365l25.003,31.147Z" style="fill:white;fill-rule:nonzero;"/>
    <path d="M1253.86,266.234l-23.552,-0l0,-28.587l20.395,-0l-0,-3.413l-20.395,-0l0,-20.907l22.613,-0l0,-3.413l-26.368,-0l0,59.733l27.307,-0l0,-3.413Z" style="fill:white;fill-rule:nonzero;"/>
    <path d="M1311.29,270.671l1.366,-0.512l-0,-60.245l-3.755,-0l0,52.394l-41.045,-53.418l-1.366,0.512l0,60.245l3.755,-0l0,-52.395l41.045,53.419Z" style="fill:white;fill-rule:nonzero;"/>
</svg>
