<?xml version="1.0" encoding="UTF-8" standalone="no"?>
<!DOCTYPE svg PUBLIC "-//W3C//DTD SVG 1.1//EN" "http://www.w3.org/Graphics/SVG/1.1/DTD/svg11.dtd">
<svg width="100%" height="100%" viewBox="0 0 2061 423" version="1.1" xmlns="http://www.w3.org/2000/svg" xmlns:xlink="http://www.w3.org/1999/xlink" xml:space="preserve" xmlns:serif="http://www.serif.com/" style="fill-rule:evenodd;clip-rule:evenodd;stroke-linejoin:round;stroke-miterlimit:2;">
    <path d="M0,182.083c0,53.284 44.467,94.3 96.983,94.3c23.384,0 46,-8.433 63.25,-23.383l-15.716,-16.483c-12.65,11.5 -29.517,18.016 -47.534,18.016c-40.25,0 -72.45,-32.2 -72.45,-72.45c0,-40.25 32.2,-72.45 72.45,-72.45c18.017,0 34.884,6.517 47.534,18.017l15.716,-16.483c-17.25,-14.95 -39.866,-23.384 -63.25,-23.384c-52.516,0 -96.983,41.017 -96.983,94.3Z" style="fill:rgb(74,166,170);fill-rule:nonzero;"/>
    <path d="M382.95,182.083c0,-53.283 -44.467,-94.3 -96.983,-94.3c-52.517,0 -96.984,41.017 -96.984,94.3c0,53.284 44.467,94.3 96.984,94.3c52.516,0 96.983,-41.016 96.983,-94.3Zm-169.433,0c-0,-40.25 32.2,-72.45 72.45,-72.45c40.25,0 72.45,32.2 72.45,72.45c-0,40.25 -32.2,72.45 -72.45,72.45c-40.25,0 -72.45,-32.2 -72.45,-72.45Z" style="fill:rgb(74,166,170);fill-rule:nonzero;"/>
    <path d="M577.3,271.783l0,-112.7c0,-44.466 -31.05,-71.3 -66.317,-71.3c-22.233,0 -40.633,9.2 -54.05,27.6l0,-23l-24.533,0l0,179.4l24.533,0l0,-98.133c0,-35.65 13.8,-64.017 47.917,-64.017c34.117,0 47.917,28.367 47.917,64.017l-0,98.133l24.533,0Z" style="fill:rgb(74,166,170);fill-rule:nonzero;"/>
    <path d="M665.85,134.933l-0,-108.1l29.517,0c38.333,0 62.866,21.084 62.866,54.05c0,32.967 -24.533,54.05 -62.866,54.05l-29.517,0Zm-0,23.384l30.283,-0c55.2,-0 88.167,-33.734 88.167,-77.434c-0,-43.7 -32.967,-77.433 -88.167,-77.433l-56.35,-0l0,268.333l26.067,0l-0,-113.466Z" style="fill:rgb(74,166,170);fill-rule:nonzero;"/>
    <path d="M975.967,182.083c-0,40.634 -32.967,72.45 -72.834,72.45c-40.25,0 -73.216,-31.816 -73.216,-72.45c-0,-40.633 32.966,-72.45 73.216,-72.45c39.867,0 72.834,31.817 72.834,72.45Zm24.533,-89.7l-24.533,0l-0,35.65c-15.717,-25.3 -42.934,-40.25 -75.517,-40.25c-51.367,0 -95.067,41.017 -95.067,94.3c0,53.284 43.7,94.3 95.067,94.3c32.583,0 59.8,-14.95 75.517,-40.25l-0,35.65l24.533,0l-0,-179.4Z" style="fill:rgb(74,166,170);fill-rule:nonzero;"/>
    <path d="M1104,254.533c-18.017,0 -31.05,-11.5 -39.867,-29.133l-18.016,13.417c11.5,23.766 34.5,37.566 57.883,37.566c39.1,0 59.033,-24.533 59.033,-54.816c0,-23.384 -13.416,-42.55 -47.916,-57.117c-24.534,-9.967 -35.65,-18.783 -35.65,-33.35c-0,-12.65 11.116,-21.467 24.15,-21.467c11.116,0 21.083,5.367 26.45,14.567l16.866,-12.267c-9.2,-14.95 -26.45,-24.15 -43.7,-24.15c-27.216,0 -48.3,18.784 -48.3,45.234c0,22.233 16.867,37.95 44.084,49.066c28.366,11.5 39.483,22.234 39.483,41.017c-0,17.25 -13.033,31.433 -34.5,31.433Z" style="fill:rgb(74,166,170);fill-rule:nonzero;"/>
    <path d="M1251.58,254.533c-18.016,0 -31.05,-11.5 -39.866,-29.133l-18.017,13.417c11.5,23.766 34.5,37.566 57.883,37.566c39.1,0 59.034,-24.533 59.034,-54.816c-0,-23.384 -13.417,-42.55 -47.917,-57.117c-24.533,-9.967 -35.65,-18.783 -35.65,-33.35c-0,-12.65 11.117,-21.467 24.15,-21.467c11.117,0 21.083,5.367 26.45,14.567l16.867,-12.267c-9.2,-14.95 -26.45,-24.15 -43.7,-24.15c-27.217,0 -48.3,18.784 -48.3,45.234c-0,22.233 16.866,37.95 44.083,49.066c28.367,11.5 39.483,22.234 39.483,41.017c0,17.25 -13.033,31.433 -34.5,31.433Z" style="fill:rgb(74,166,170);fill-rule:nonzero;"/>
    <path d="M1385.37,92.383l-24.534,0l0,179.4l24.534,0l-0,-179.4Zm-30.667,-73.6c-0,10.35 8.05,18.784 18.4,18.784c10.35,-0 18.4,-8.434 18.4,-18.784c-0,-10.35 -8.05,-18.783 -18.4,-18.783c-10.35,-0 -18.4,8.433 -18.4,18.783Z" style="fill:rgb(74,166,170);fill-rule:nonzero;"/>
    <path d="M1631.08,182.083c0,-53.283 -44.466,-94.3 -96.983,-94.3c-52.517,0 -96.983,41.017 -96.983,94.3c-0,53.284 44.466,94.3 96.983,94.3c52.517,0 96.983,-41.016 96.983,-94.3Zm-169.433,0c-0,-40.25 32.2,-72.45 72.45,-72.45c40.25,0 72.45,32.2 72.45,72.45c-0,40.25 -32.2,72.45 -72.45,72.45c-40.25,0 -72.45,-32.2 -72.45,-72.45Z" style="fill:rgb(74,166,170);fill-rule:nonzero;"/>
    <path d="M1825.43,271.783l0,-112.7c0,-44.466 -31.05,-71.3 -66.316,-71.3c-22.234,0 -40.634,9.2 -54.05,27.6l-0,-23l-24.534,0l0,179.4l24.534,0l-0,-98.133c-0,-35.65 13.8,-64.017 47.916,-64.017c34.117,0 47.917,28.367 47.917,64.017l0,98.133l24.533,0Z" style="fill:rgb(74,166,170);fill-rule:nonzero;"/>
    <path d="M2059.27,188.217c0.383,-1.15 0.766,-4.984 0.766,-6.517c-0.383,-54.433 -42.933,-93.917 -93.15,-93.917c-51.366,0 -93.916,40.634 -93.916,94.3c-0,54.817 43.7,94.3 97.366,94.3c32.584,0 59.417,-13.416 79.35,-39.866l-18.783,-13.417c-13.8,19.933 -34.5,31.433 -60.567,31.433c-37.183,0 -69.766,-25.3 -72.833,-66.316l161.767,-0Zm-92.384,-78.584c33.734,0 60.95,23 67.467,57.117l-135.7,-0c6.9,-36.033 36.8,-57.117 68.233,-57.117Z" style="fill:rgb(74,166,170);fill-rule:nonzero;"/>
    <path d="M49.283,415.99l-36.8,-0l0,-44.667l31.867,0l0,-5.333l-31.867,-0l0,-32.667l35.334,0l-0,-5.333l-41.2,-0l-0,93.333l42.666,0l0,-5.333Z" style="fill:rgb(88,88,88);fill-rule:nonzero;"/>
    <path d="M139.017,422.923l2.133,-0.8l0,-94.133l-5.867,-0l0,81.867l-64.133,-83.467l-2.133,0.8l-0,94.133l5.866,0l0,-81.866l64.134,83.466Z" style="fill:rgb(88,88,88);fill-rule:nonzero;"/>
    <path d="M156.217,333.323l24.266,0l0,88l5.867,0l0,-88l24.267,0l-0,-5.333l-54.4,-0l-0,5.333Z" style="fill:rgb(88,88,88);fill-rule:nonzero;"/>
    <path d="M231.55,421.323l0,-48.533l31.067,-0l-0,-5.333l-31.067,-0l0,-34.134l34.667,0l-0,-5.333l-40.534,-0l0,93.333l5.867,0Z" style="fill:rgb(88,88,88);fill-rule:nonzero;"/>
    <path d="M307.817,326.39l-38.8,94.933l5.466,1.6l11.334,-27.866l45.6,-0l11.333,27.866l5.467,-1.6l-38.8,-94.933l-1.6,-0Zm21.6,63.467l-41.6,-0l20.8,-51.467l20.8,51.467Z" style="fill:rgb(88,88,88);fill-rule:nonzero;"/>
    <path d="M362.617,327.99l-0,93.333l44,0l-0,-5.333l-38.134,0l0,-88l-5.866,-0Z" style="fill:rgb(88,88,88);fill-rule:nonzero;"/>
    <path d="M412.75,333.323l24.267,0l-0,88l5.866,0l0,-88l24.267,0l0,-5.333l-54.4,-0l0,5.333Z" style="fill:rgb(88,88,88);fill-rule:nonzero;"/>
    <path d="M524.883,415.99l-36.8,-0l0,-44.667l31.867,0l0,-5.333l-31.867,-0l0,-32.667l35.334,0l-0,-5.333l-41.2,-0l-0,93.333l42.666,0l0,-5.333Z" style="fill:rgb(88,88,88);fill-rule:nonzero;"/>
    <path d="M614.617,422.923l2.133,-0.8l0,-94.133l-5.867,-0l0,81.867l-64.133,-83.467l-2.133,0.8l-0,94.133l5.866,0l0,-81.866l64.134,83.466Z" style="fill:rgb(88,88,88);fill-rule:nonzero;"/>
    <path d="M643.55,417.99c0,2.667 2.133,4.933 4.933,4.933c2.8,0 4.934,-2.266 4.934,-4.933c-0,-2.667 -2.134,-4.933 -4.934,-4.933c-2.8,-0 -4.933,2.266 -4.933,4.933Z" style="fill:rgb(88,88,88);fill-rule:nonzero;"/>
    <path d="M733.283,376.123l0,5.334l27.467,-0c-1.333,18.266 -14.667,36.133 -37.6,36.133c-22.8,-0 -41.6,-19.333 -41.6,-42.933c0,-24.267 19.2,-42.934 42.667,-42.934c13.6,0 25.733,6.534 33.466,16.4l4.4,-3.466c-8.4,-10.4 -22,-18.267 -37.866,-18.267c-26.534,0 -48.534,20.933 -48.534,48.267c0,26.666 21.734,48.266 47.467,48.266c28.133,0 43.6,-22.4 44,-46.8l-33.867,0Z" style="fill:rgb(88,88,88);fill-rule:nonzero;"/>
    <path d="M828.883,415.99l-36.8,-0l0,-44.667l31.867,0l0,-5.333l-31.867,-0l0,-32.667l35.334,0l-0,-5.333l-41.2,-0l-0,93.333l42.666,0l0,-5.333Z" style="fill:rgb(88,88,88);fill-rule:nonzero;"/>
    <path d="M842.617,406.79c5.066,10.133 15.466,16.133 27.066,16.133c17.467,0 27.467,-11.866 27.467,-26c0,-14 -7.2,-23.333 -23.867,-30.133c-13.733,-5.6 -18.533,-11.6 -18.533,-20.667c0,-8.533 6.667,-14.4 15.467,-14.4c6,0 10.266,2.134 13.866,6.8l4.134,-3.066c-3.867,-6 -10.534,-9.067 -18,-9.067c-12.667,-0 -21.334,8.667 -21.334,19.867c0,12.4 7.467,19.866 21.067,25.2c16.533,6.666 21.333,14.933 21.333,25.733c0,11.867 -8.933,20.4 -21.6,20.4c-9.6,-0 -17.733,-5.467 -22.4,-14.133l-4.666,3.333Z" style="fill:rgb(88,88,88);fill-rule:nonzero;"/>
    <path d="M907.817,333.323l24.266,0l0,88l5.867,0l0,-88l24.267,0l-0,-5.333l-54.4,-0l-0,5.333Z" style="fill:rgb(88,88,88);fill-rule:nonzero;"/>
    <path d="M1002.22,326.39l-38.8,94.933l5.466,1.6l11.334,-27.866l45.6,-0l11.333,27.866l5.467,-1.6l-38.8,-94.933l-1.6,-0Zm21.6,63.467l-41.6,-0l20.8,-51.467l20.8,51.467Z" style="fill:rgb(88,88,88);fill-rule:nonzero;"/>
    <path d="M1057.02,327.99l-0,93.333l44,0l-0,-5.333l-38.134,0l0,-88l-5.866,-0Z" style="fill:rgb(88,88,88);fill-rule:nonzero;"/>
    <path d="M1107.15,333.323l24.267,0l-0,88l5.866,0l0,-88l24.267,0l0,-5.333l-54.4,-0l0,5.333Z" style="fill:rgb(88,88,88);fill-rule:nonzero;"/>
    <path d="M1219.28,415.99l-36.8,-0l0,-44.667l31.867,0l0,-5.333l-31.867,-0l0,-32.667l35.334,0l-0,-5.333l-41.2,-0l-0,93.333l42.666,0l0,-5.333Z" style="fill:rgb(88,88,88);fill-rule:nonzero;"/>
    <path d="M1309.02,422.923l2.133,-0.8l0,-94.133l-5.867,-0l0,81.867l-64.133,-83.467l-2.133,0.8l-0,94.133l5.866,0l0,-81.866l64.134,83.466Z" style="fill:rgb(88,88,88);fill-rule:nonzero;"/>
    <path d="M1337.95,417.99c0,2.667 2.133,4.933 4.933,4.933c2.8,0 4.934,-2.266 4.934,-4.933c-0,-2.667 -2.134,-4.933 -4.934,-4.933c-2.8,-0 -4.933,2.266 -4.933,4.933Z" style="fill:rgb(88,88,88);fill-rule:nonzero;"/>
    <path d="M1424.22,422.923l4.8,-3.2l-35.734,-43.333c21.467,-2.8 26,-14.8 26,-23.733c0,-14.8 -11.2,-24.667 -29.066,-24.667l-15.6,-0l-0,93.333l5.866,0l0,-88l8.8,0c15.6,0 24.267,8.267 24.267,19.2c0,9.734 -7.467,19.067 -27.733,19.6c-0.267,0.667 -0.534,1.467 -0.667,2.134l39.067,48.666Z" style="fill:rgb(88,88,88);fill-rule:nonzero;"/>
    <path d="M1487.02,415.99l-36.8,-0l-0,-44.667l31.866,0l0,-5.333l-31.866,-0l-0,-32.667l35.333,0l0,-5.333l-41.2,-0l0,93.333l42.667,0l-0,-5.333Z" style="fill:rgb(88,88,88);fill-rule:nonzero;"/>
    <path d="M1535.68,326.39l-38.8,94.933l5.467,1.6l11.333,-27.866l45.6,-0l11.334,27.866l5.466,-1.6l-38.8,-94.933l-1.6,-0Zm21.6,63.467l-41.6,-0l20.8,-51.467l20.8,51.467Z" style="fill:rgb(88,88,88);fill-rule:nonzero;"/>
    <path d="M1590.48,327.99l0,93.333l44,0l0,-5.333l-38.133,0l0,-88l-5.867,-0Z" style="fill:rgb(88,88,88);fill-rule:nonzero;"/>
    <rect x="1651.28" y="327.99" width="5.867" height="93.333" style="fill:rgb(88,88,88);fill-rule:nonzero;"/>
    <path d="M1676.88,406.79c5.067,10.133 15.467,16.133 27.067,16.133c17.467,0 27.467,-11.866 27.467,-26c-0,-14 -7.2,-23.333 -23.867,-30.133c-13.733,-5.6 -18.533,-11.6 -18.533,-20.667c-0,-8.533 6.666,-14.4 15.466,-14.4c6,0 10.267,2.134 13.867,6.8l4.133,-3.066c-3.866,-6 -10.533,-9.067 -18,-9.067c-12.666,-0 -21.333,8.667 -21.333,19.867c0,12.4 7.467,19.866 21.067,25.2c16.533,6.666 21.333,14.933 21.333,25.733c0,11.867 -8.933,20.4 -21.6,20.4c-9.6,-0 -17.733,-5.467 -22.4,-14.133l-4.667,3.333Z" style="fill:rgb(88,88,88);fill-rule:nonzero;"/>
    <rect x="1752.75" y="327.99" width="5.867" height="93.333" style="fill:rgb(88,88,88);fill-rule:nonzero;"/>
    <path d="M1827.02,415.99l-36.8,-0l-0,-44.667l31.866,0l0,-5.333l-31.866,-0l-0,-32.667l35.333,0l0,-5.333l-41.2,-0l0,93.333l42.667,0l-0,-5.333Z" style="fill:rgb(88,88,88);fill-rule:nonzero;"/>
    <path d="M1896.35,422.923l4.8,-3.2l-35.733,-43.333c21.466,-2.8 26,-14.8 26,-23.733c-0,-14.8 -11.2,-24.667 -29.067,-24.667l-15.6,-0l0,93.333l5.867,0l-0,-88l8.8,0c15.6,0 24.266,8.267 24.266,19.2c0,9.734 -7.466,19.067 -27.733,19.6c-0.267,0.667 -0.533,1.467 -0.667,2.134l39.067,48.666Z" style="fill:rgb(88,88,88);fill-rule:nonzero;"/>
    <path d="M1959.15,415.99l-36.8,-0l0,-44.667l31.867,0l-0,-5.333l-31.867,-0l0,-32.667l35.333,0l0,-5.333l-41.2,-0l0,93.333l42.667,0l0,-5.333Z" style="fill:rgb(88,88,88);fill-rule:nonzero;"/>
    <path d="M2048.88,422.923l2.134,-0.8l-0,-94.133l-5.867,-0l0,81.867l-64.133,-83.467l-2.134,0.8l0,94.133l5.867,0l0,-81.866l64.133,83.466Z" style="fill:rgb(88,88,88);fill-rule:nonzero;"/>
</svg>
