<?xml version="1.0" encoding="UTF-8" standalone="no"?>
<svg width="100%" height="100%" viewBox="0 0 160 160" version="1.1" xmlns="http://www.w3.org/2000/svg">
    <path d="M140,80l0,80l-120,0l0,-160l80,0l0,40l40,40Z" style="fill:rgb(232,163,61);"/>
    <rect x="40" y="20" width="10" height="120" style="fill:rgb(128,128,128);"/>
    <g transform="matrix(1,0,0,1,0,10)">
        <rect x="50" y="30" width="10" height="10" style="fill:rgb(128,128,128);"/>
    </g>
    <rect x="70" y="110" width="10" height="30" style="fill:rgb(70,126,185);"/>
    <rect x="80" y="110" width="30" height="30" style="fill:rgb(191,191,191);"/>
    <rect x="50" y="80" width="10" height="10" style="fill:rgb(128,128,128);"/>
    <rect x="50" y="120" width="10" height="10" style="fill:rgb(128,128,128);"/>
    <rect x="70" y="30" width="10" height="30" style="fill:rgb(70,126,185);"/>
    <rect x="80" y="30" width="30" height="30" style="fill:rgb(191,191,191);"/>
    <path d="M100,0l40,40l-40,0l0,-40Z" style="fill:rgb(243,205,150);"/>
    <path d="M140,80l-40,-40l40,0l0,40Z" style="fill:rgb(204,129,24);"/>
    <rect x="60" y="50" width="10" height="70" style="fill:rgb(13,121,242);"/>
    <rect x="70" y="50" width="50" height="70" style="fill:white;"/>
    <path d="M80,60l30,0l0,50l-30,0l0,-10l20,0l0,-10l-10,0l0,-10l10,0l0,-10l-20,0l0,-10Z" style="fill:rgb(200,60,60);"/>
</svg>
