<?xml version="1.0" encoding="UTF-8" standalone="no"?>
<svg width="100%" height="100%" viewBox="0 0 160 160" version="1.1" xmlns="http://www.w3.org/2000/svg">
    <path d="M100,0l40,40l0,120l-120,0l0,-160l80,0Zm-10,10l-60,0l0,140l100,0l0,-100l-40,0l0,-40Zm36.96,30l-26.96,-27.001l0,27.001l26.96,-0Z" style="fill:#666666;"/>
    <rect x="30" y="130" width="100" height="20" style="fill:#5C74D6;"/>
    <path d="M90,50l40,0l0,40l-40,-40Z" style="fill:#999999;"/>
    <path d="M65,40l-30,30l0,55l20,0l0,-35l20,0l0,35l20,0l0,-55l-30,-30Z" style="fill:#5C74D6;"/>
</svg>
