<?xml version="1.0" encoding="UTF-8" standalone="no"?><!DOCTYPE svg PUBLIC "-//W3C//DTD SVG 1.1//EN" "http://www.w3.org/Graphics/SVG/1.1/DTD/svg11.dtd"><svg width="100%" height="100%" viewBox="0 0 256 256" version="1.1" xmlns="http://www.w3.org/2000/svg" xmlns:xlink="http://www.w3.org/1999/xlink" xml:space="preserve" style="fill-rule:evenodd;clip-rule:evenodd;stroke-linejoin:round;stroke-miterlimit:2;"><g id="TYPO3page"><rect x="0" y="0" width="256" height="256" style="fill:#8fbfc1;"/><g id="Main"><path d="M32.9,155.7c0,27.8 22.4,49.2 51.2,49.2c14.4,-0 27.2,-6 36.4,-14.8l-14,-13.8c-5.4,5.8 -13.4,9 -22.4,9c-17,-0 -30,-12.6 -30,-29.6c0,-17 13,-29.6 30,-29.6c9,-0 17,3.2 22.4,9l14,-13.8c-9.2,-8.8 -22,-14.8 -36.4,-14.8c-28.8,-0 -51.2,21.4 -51.2,49.2Z" style="fill:#ebebeb;fill-rule:nonzero;"/><path d="M176.9,150.5c30.6,-0 48.8,-20 48.8,-44c0,-24 -18.2,-44 -48.8,-44l-35,-0l0,140l23.2,-0l0,-52l11.8,-0Zm-11.8,-66.8l11.2,-0c15.2,-0 26.2,8.4 26.2,22.8c0,14.4 -11,22.8 -26.2,22.8l-11.2,-0l0,-45.6Z" style="fill:#ebebeb;fill-rule:nonzero;"/></g></g></svg>
